<svg width="26" height="28" viewBox="0 0 26 28" fill="none" xmlns="http://www.w3.org/2000/svg">
<path d="M2.375 27.9062C1.71528 27.9062 1.15451 27.6753 0.692708 27.2135C0.230903 26.7517 0 26.191 0 25.5312V10.0938C0 9.72431 0.0857637 9.36806 0.257292 9.025C0.428819 8.68194 0.659722 8.40486 0.95 8.19375L11.2417 0.475C11.4528 0.316667 11.6771 0.197917 11.9146 0.11875C12.1521 0.0395834 12.4028 0 12.6667 0C12.9306 0 13.1813 0.0395834 13.4188 0.11875C13.6563 0.197917 13.8806 0.316667 14.0917 0.475L24.3833 8.19375C24.6736 8.40486 24.9045 8.68194 25.076 9.025C25.2476 9.36806 25.3333 9.72431 25.3333 10.0938V25.5312C25.3333 26.191 25.1024 26.7517 24.6406 27.2135C24.1788 27.6753 23.6181 27.9062 22.9583 27.9062H15.8333V16.8229H9.5V27.9062H2.375Z" fill="white"/>
</svg>
